<?xml version="1.0" encoding="UTF-8"?> <svg xmlns="http://www.w3.org/2000/svg" width="173" height="48" viewBox="0 0 173 48" fill="none"><g clip-path="url(#clip0)"><mask id="mask0" maskUnits="userSpaceOnUse" x="0" y="0" width="44" height="44"><path d="M14.0909 39.3403C14.0909 38.2821 14.9651 37.4078 16.0234 37.4078C17.0817 37.4078 17.9559 38.2821 17.9559 39.3403C17.9559 40.3986 17.0817 41.2729 16.0234 41.2729C14.9191 41.2268 14.0909 40.3526 14.0909 39.3403ZM12.1124 27.6532C12.1124 28.0213 12.1584 28.3434 12.2504 28.7115C12.4345 29.4477 12.2504 30.2299 11.6983 30.7821L7.46514 35.0152C6.91299 35.5673 6.13078 35.7514 5.39459 35.5673C4.84244 35.4293 4.24428 35.3833 3.64612 35.4753C2.0817 35.7514 0.793359 37.0397 0.563298 38.6502C0.149188 41.3189 2.40379 43.5735 5.02649 43.1133C6.59091 42.8373 7.87925 41.5949 8.20134 40.0305C8.29336 39.4324 8.29336 38.8342 8.10931 38.2821C7.92526 37.5459 8.10931 36.7636 8.66146 36.2115C9.81177 35.0612 11.7443 33.1287 12.8946 31.9784C13.4467 31.4262 14.2289 31.1962 14.9651 31.4262C15.0572 31.4722 15.1492 31.5643 15.1492 31.6563V34.0949C15.1492 34.8311 14.7811 35.5673 14.0909 35.9354C12.8946 36.6256 12.0664 37.914 12.1124 39.3863C12.1584 41.4109 13.8148 43.1133 15.8394 43.2054C15.8854 43.2054 15.9314 43.2054 15.9774 43.2054C16.0234 43.2054 16.0694 43.2054 16.1154 43.2054C18.14 43.1133 19.7964 41.4109 19.8424 39.3863C19.8885 37.914 19.0602 36.5796 17.8639 35.9354C17.2197 35.5673 16.8056 34.8311 16.8056 34.0949V31.6563C16.8056 31.5643 16.8977 31.4722 16.9897 31.4262C17.7259 31.2422 18.5081 31.4262 19.0602 31.9784L23.2934 36.2115C23.8455 36.7636 24.0296 37.5459 23.8455 38.2821C23.7075 38.8342 23.6615 39.4324 23.7995 40.0305C24.0756 41.5949 25.3639 42.8833 26.9743 43.1133C29.6431 43.5275 31.8977 41.2729 31.4375 38.6502C31.1615 37.0857 29.9191 35.7974 28.3547 35.4753C27.7566 35.3833 27.1584 35.3833 26.6062 35.5673C25.8701 35.7514 25.0878 35.5673 24.5357 35.0152L20.3026 30.7821C19.7504 30.2299 19.5204 29.4477 19.7504 28.7115C19.8424 28.3894 19.8885 28.0213 19.8885 27.6532C19.8885 25.4906 18.14 23.7882 16.0234 23.7882C13.8608 23.7882 12.1124 25.5367 12.1124 27.6532ZM37.3731 27.6532C37.3731 26.5949 38.2474 25.7207 39.3056 25.7207C40.3639 25.7207 41.2382 26.5949 41.2382 27.6532C41.2382 28.7115 40.3639 29.5857 39.3056 29.5857C38.2474 29.5857 37.3731 28.7115 37.3731 27.6532ZM38.6155 12.1931C37.051 12.4692 35.7627 13.7115 35.4406 15.2759C35.3486 15.8741 35.3486 16.4722 35.5326 17.0244C35.7167 17.7606 35.5326 18.5428 34.9805 19.0949L30.7474 23.3281C30.1952 23.8802 29.413 24.1103 28.6768 23.8802C28.3547 23.7882 27.9866 23.7422 27.6185 23.7422C25.4559 23.7422 23.7535 25.4906 23.7535 27.6072C23.7535 29.7698 25.502 31.4722 27.6185 31.4722C27.9866 31.4722 28.3087 31.4262 28.6768 31.3342C29.413 31.1501 30.1952 31.3342 30.7474 31.8863L34.9805 36.1195C35.5326 36.6716 35.7167 37.4538 35.5326 38.19C35.3946 38.7422 35.3486 39.3403 35.4406 39.9385C35.7167 41.5029 37.005 42.7913 38.6155 43.0213C41.2842 43.4814 43.5388 41.1808 43.0786 38.5581C42.8026 36.9937 41.5602 35.7054 39.9958 35.3833C39.3977 35.2913 38.7995 35.2913 38.2474 35.4753C37.5112 35.6594 36.729 35.4753 36.1768 34.9232C35.0265 33.7729 33.094 31.8403 31.9437 30.69C31.3915 30.1379 31.1615 29.3557 31.3915 28.6195C31.4375 28.5274 31.5296 28.4354 31.6216 28.4354H34.0602C34.7964 28.4354 35.5326 28.8035 35.9007 29.4937C36.5909 30.69 37.8793 31.5182 39.3517 31.4722C41.3762 31.4262 43.0786 29.7698 43.1707 27.7452C43.1707 27.6992 43.1707 27.6532 43.1707 27.6072C43.1707 27.5612 43.1707 27.5152 43.1707 27.4692C43.0786 25.4446 41.3762 23.7882 39.3517 23.7422C37.8793 23.6962 36.5449 24.5244 35.9007 25.7207C35.5326 26.3649 34.7964 26.779 34.0602 26.779H31.6216C31.5296 26.779 31.4375 26.687 31.3915 26.5949C31.2075 25.8587 31.3915 25.0765 31.9437 24.5244L36.1768 20.2913C36.729 19.7391 37.5112 19.5551 38.2474 19.7391C38.7995 19.8771 39.3977 19.9232 39.9958 19.8311C41.5602 19.5551 42.8486 18.2667 43.0786 16.6563C43.4928 14.2176 41.6063 12.1011 39.2596 12.1011C39.0756 12.1471 38.8455 12.1471 38.6155 12.1931ZM25.732 4.371C25.732 3.31272 26.6062 2.43849 27.6645 2.43849C28.7228 2.43849 29.597 3.31272 29.597 4.371C29.597 5.42929 28.7228 6.30352 27.6645 6.30352C26.5602 6.30352 25.732 5.42929 25.732 4.371ZM38.6155 0.551985C37.051 0.828059 35.7627 2.07039 35.4406 3.63481C35.3486 4.23297 35.3486 4.83113 35.5326 5.38327C35.7167 6.11947 35.5326 6.90168 34.9805 7.45383C33.8302 8.60413 31.8977 10.5366 30.7474 11.687C30.1952 12.2391 29.413 12.4692 28.6768 12.2391C28.5848 12.1931 28.4928 12.1011 28.4928 12.009V9.57039C28.4928 8.8342 28.8609 8.098 29.551 7.7299C30.7474 7.03972 31.5756 5.75137 31.5296 4.27898C31.4836 2.25444 29.8271 0.551985 27.8026 0.459961C27.7566 0.459961 27.7105 0.459961 27.6645 0.459961C27.6185 0.459961 27.5725 0.459961 27.5265 0.459961C25.502 0.551985 23.8455 2.25444 23.7995 4.27898C23.7535 5.75137 24.5817 7.08573 25.778 7.7299C26.4222 8.098 26.8363 8.8342 26.8363 9.57039V12.009C26.8363 12.1011 26.7443 12.1931 26.6523 12.2391C25.9161 12.4232 25.1339 12.2391 24.5817 11.687C23.4314 10.5366 21.4989 8.60413 20.3486 7.45383C19.7964 6.90168 19.6124 6.11947 19.7964 5.38327C19.9345 4.83113 19.9805 4.23297 19.8424 3.63481C19.5664 2.07039 18.278 0.782047 16.6676 0.551985C13.9989 0.137875 11.7443 2.39248 12.2044 5.01518C12.4805 6.57959 13.7228 7.86794 15.2872 8.19002C15.8854 8.28205 16.4835 8.28205 17.0357 8.098C17.7719 7.91395 18.5541 8.098 19.1062 8.65015L23.3394 12.8833C23.8915 13.4354 24.1216 14.2176 23.8915 14.9538C23.7995 15.2759 23.7535 15.644 23.7535 16.0121C23.7535 18.1747 25.502 19.8771 27.6185 19.8771C29.7811 19.8771 31.4836 18.1287 31.4836 16.0121C31.4836 15.644 31.4375 15.3219 31.3455 14.9538C31.1615 14.2176 31.3455 13.4354 31.8977 12.8833L36.1308 8.65015C36.6829 8.098 37.4651 7.91395 38.2013 8.098C38.7535 8.23604 39.3517 8.28205 39.9498 8.19002C41.5142 7.91395 42.8026 6.62561 43.0326 5.01518C43.4928 2.62254 41.6523 0.505973 39.2596 0.505973C39.0756 0.505973 38.8455 0.505973 38.6155 0.551985ZM2.4498 16.0121C2.4498 14.9538 3.32403 14.0796 4.38232 14.0796C5.4406 14.0796 6.31483 14.9538 6.31483 16.0121C6.31483 17.0704 5.4406 17.9446 4.38232 17.9446C3.27802 17.9446 2.4498 17.0704 2.4498 16.0121ZM0.517286 5.06119C0.793359 6.62561 2.03569 7.91395 3.60011 8.23604C4.19827 8.32806 4.79643 8.32806 5.34858 8.14401C6.08477 7.95996 6.86698 8.14401 7.41913 8.69616C8.56944 9.84647 10.502 11.779 11.6523 12.9293C12.2044 13.4814 12.4345 14.2636 12.2044 14.9998C12.1584 15.0919 12.0664 15.1839 11.9743 15.1839H9.53569C8.7995 15.1839 8.0633 14.8158 7.6952 14.1256C7.00502 12.9293 5.71667 12.1011 4.24428 12.1471C2.26575 12.1931 0.563298 13.8495 0.471273 15.8741C0.471273 15.9201 0.471273 15.9661 0.471273 16.0121C0.471273 16.0581 0.471273 16.1041 0.471273 16.1501C0.563298 18.1747 2.26575 19.8311 4.29029 19.8771C5.76269 19.9232 7.09704 19.0949 7.74121 17.8986C8.10931 17.2544 8.84551 16.8403 9.58171 16.8403H12.0204C12.1124 16.8403 12.2044 16.9324 12.2504 17.0244C12.4345 17.7606 12.2504 18.5428 11.6983 19.0949L7.46514 23.3281C6.91299 23.8802 6.13078 24.0643 5.39459 23.8802C4.84244 23.7422 4.24428 23.6962 3.64612 23.7882C2.0817 24.0643 0.793359 25.3526 0.563298 26.963C0.149188 29.6317 2.40379 31.8863 5.02649 31.4262C6.59091 31.1501 7.87925 29.9078 8.20134 28.3434C8.29336 27.7452 8.29336 27.1471 8.10931 26.5949C7.92526 25.8587 8.10931 25.0765 8.66146 24.5244L12.8946 20.2913C13.4467 19.7391 14.2289 19.509 14.9651 19.7391C15.2872 19.8311 15.6553 19.8771 16.0234 19.8771C18.186 19.8771 19.8885 18.1287 19.8885 16.0121C19.8885 13.8495 18.14 12.1471 16.0234 12.1471C15.6553 12.1471 15.3332 12.1931 14.9651 12.2851C14.2289 12.4692 13.4467 12.2851 12.8946 11.733L8.66146 7.49984C8.10931 6.94769 7.92526 6.16548 8.10931 5.42929C8.24735 4.87714 8.29336 4.27898 8.20134 3.68082C7.92526 2.1164 6.63692 0.828059 5.02649 0.597998C4.79643 0.505973 4.56637 0.505973 4.3363 0.505973C1.98968 0.505973 0.103175 2.62254 0.517286 5.06119Z" fill="#C4C4C4"></path></mask><g mask="url(#mask0)"><path d="M-0.000488281 0H43.4581V43.4586H-0.000488281V0Z" fill="url(#paint0_linear)"></path></g><path d="M65.2038 16.3386H54.736V10.5411H63.7406V8.36008H54.736V2.8386H64.8587V0.616211H52.1685V18.561H65.2038V16.3386ZM81.8971 10.7205C81.8971 14.696 80.0566 16.4904 76.8357 16.4904C73.6149 16.4904 71.7744 14.696 71.7744 10.7205V0.616211H69.2115V10.8217C69.2023 16.0257 72.0735 18.7865 76.7943 18.7865C81.5152 18.7865 84.3863 16.0257 84.3863 10.8355V0.616211H81.8971V10.7205ZM60.3265 26.9904C61.2732 26.9652 62.2143 27.1421 63.0871 27.5095C63.9599 27.8769 64.7443 28.4262 65.3879 29.1208L67.0489 27.5288C65.4063 25.6883 62.9952 24.7312 60.2253 24.7312C54.7636 24.7312 50.71 28.6055 50.71 33.9337C50.71 39.2619 54.7636 43.1362 60.1977 43.1362C62.9952 43.1362 65.4063 42.1607 67.0489 40.311L65.3833 38.696C64.7408 39.3936 63.9572 39.9464 63.0845 40.3177C62.2118 40.689 61.2701 40.8702 60.3219 40.8493C56.2682 40.8493 53.2682 37.9276 53.2682 33.9475C53.2682 29.9674 56.2682 27.0457 60.3219 27.0457L60.3265 26.9904ZM75.2759 40.2052L70.5367 29.2727H67.9692L73.9738 42.8417L73.5413 43.7941C72.8741 45.3585 72.1287 45.8969 70.9508 45.8969C70.0375 45.8965 69.1613 45.5361 68.5121 44.8938L67.463 46.7343C68.4275 47.5747 69.672 48.0229 70.9508 47.9905C73.0305 47.9905 74.5949 47.0932 75.8005 44.2174L82.3894 29.2635H79.983L75.2759 40.2052ZM91.9002 29.1438C90.9939 29.1107 90.0925 29.2907 89.2686 29.6696C88.4446 30.0484 87.7211 30.6153 87.1563 31.3248V23.8478H84.6946V42.8693H87.0551V40.7159C87.6144 41.4648 88.3482 42.0657 89.1925 42.4667C90.0368 42.8676 90.9663 43.0563 91.9002 43.0165C95.8756 43.0165 98.7744 40.2236 98.7744 36.0687C98.7744 31.9138 95.8756 29.1392 91.9002 29.1392V29.1438ZM91.6977 40.8724C89.1072 40.8724 87.1287 38.9766 87.1287 36.0779C87.1287 33.1791 89.1072 31.3064 91.6977 31.3064C94.2882 31.3064 96.2989 33.1791 96.2989 36.0779C96.2989 38.9766 94.3112 40.8724 91.6977 40.8724ZM107.751 29.1484C103.827 29.1484 100.928 32.0472 100.928 36.0779C100.928 40.1085 103.854 43.0257 108.239 43.0257C110.498 43.0257 112.38 42.2573 113.6 40.8217L112.242 39.2297C111.746 39.772 111.139 40.1998 110.461 40.4835C109.783 40.7671 109.052 40.8998 108.317 40.8724C105.626 40.8724 103.716 39.2849 103.394 36.8969H114.437C114.46 36.6668 114.488 36.3585 114.488 36.1515C114.488 31.9736 111.69 29.1484 107.765 29.1484H107.751ZM103.408 35.13C103.495 34.0307 103.994 33.0047 104.804 32.2565C105.614 31.5082 106.676 31.0927 107.779 31.0927C108.882 31.0927 109.944 31.5082 110.754 32.2565C111.564 33.0047 112.063 34.0307 112.15 35.13H103.408ZM120.258 31.5641V29.2635H117.897V42.8693H120.359V36.0963C120.359 33.1239 122.001 31.495 124.643 31.495C124.832 31.4911 125.021 31.5004 125.208 31.5227V29.1438C122.82 29.1438 121.132 29.9674 120.258 31.5549V31.5641ZM141.34 38.3049L130.569 24.9153H128.466V42.8601H131.029V29.4797L141.805 42.8693H143.908V24.9245H141.34V38.3049ZM154.5 29.1438C150.575 29.1438 147.676 32.0426 147.676 36.0733C147.676 40.1039 150.603 43.0211 154.988 43.0211C157.242 43.0211 159.129 42.2527 160.348 40.8171L158.991 39.2251C158.494 39.77 157.884 40.1998 157.204 40.4843C156.523 40.7689 155.789 40.9013 155.052 40.8724C152.356 40.8724 150.451 39.2849 150.124 36.8969H161.167C161.197 36.6495 161.214 36.4007 161.218 36.1515C161.218 31.9736 158.425 29.1484 154.5 29.1484V29.1438ZM150.138 35.13C150.238 34.0399 150.742 33.0266 151.551 32.2888C152.359 31.551 153.414 31.142 154.509 31.142C155.604 31.142 156.659 31.551 157.468 32.2888C158.276 33.0266 158.78 34.0399 158.88 35.13H150.138ZM171.506 40.311C170.956 40.7362 170.278 40.9632 169.583 40.9552C168.202 40.9552 167.452 40.1316 167.452 38.6546V31.2926H171.35V29.2727H167.452V26.3003H164.991V29.2727H162.69V31.3018H164.991V38.765C164.991 41.5257 166.555 43.0211 169.297 43.0211C170.369 43.0571 171.421 42.7223 172.274 42.0733L171.506 40.311Z" fill="#191458"></path></g><defs><linearGradient id="paint0_linear" x1="43.4581" y1="37.0078" x2="-0.000488269" y2="37.0078" gradientUnits="userSpaceOnUse"><stop offset="0.208333" stop-color="#1B1464"></stop><stop offset="1" stop-color="#29ABE2"></stop></linearGradient><clipPath id="clip0"><rect width="172.261" height="48" fill="white"></rect></clipPath></defs></svg> 